<svg width="441" height="441" viewBox="0 0 441 441" fill="none" xmlns="http://www.w3.org/2000/svg">
<mask id="mask0_502_87745" style="mask-type:alpha" maskUnits="userSpaceOnUse" x="0" y="0" width="441" height="441">
<circle cx="220.5" cy="220.5" r="220.5" fill="#D9D9D9"/>
</mask>
<g mask="url(#mask0_502_87745)">
<path d="M220.499 558.646C21.4916 558.646 -139.836 407.097 -139.836 220.153C-139.836 33.208 21.4916 -118.34 220.499 -118.34C419.507 -118.34 580.834 33.208 580.834 220.153C580.834 407.097 419.507 558.646 220.499 558.646Z" fill="#0B3950"/>
<g filter="url(#filter0_i_502_87745)">
<path d="M304.835 301.442C311.736 329.861 318.545 358.302 325.246 386.758C333.811 423.104 342.26 460.048 340.312 497.311C339.595 511.017 337.169 525.366 328.466 536.103C322.335 543.675 313.6 548.771 304.681 552.875C276.537 565.831 245.119 570.344 214.079 571.745C188.685 572.888 162.243 571.828 139.514 560.629C132.874 557.358 126.597 553.208 121.675 547.741C115.976 541.403 112.309 533.559 109.413 525.593C95.2873 486.702 98.1679 443.39 109.86 403.727C121.552 364.064 141.586 327.347 161.75 291.122" fill="white"/>
<path d="M305.22 294.877C311.42 320.396 319.015 352.002 325.053 377.558C330.976 402.629 337.084 427.731 340.311 453.309C341.898 465.909 342.761 478.615 342.468 491.314C342.214 502.362 341.336 513.75 337.354 524.185C335.443 529.182 332.848 533.862 329.382 537.981C325.8 542.244 321.341 545.758 316.604 548.711C306.768 554.844 295.577 559.153 284.524 562.613C261.301 569.875 236.847 572.699 212.585 573.706C189.154 574.676 164.892 573.653 143.079 564.347C132.627 559.887 122.961 553.534 116.445 544.183C109.875 534.748 106.132 523.299 103.297 512.304C97.3588 489.269 96.7349 465.114 99.8312 441.61C102.989 417.584 109.952 394.277 119.095 371.818C128.353 349.094 139.683 327.256 151.49 305.728C154.34 300.526 157.221 295.347 160.101 290.168C161.295 288.032 164.615 289.94 163.429 292.076C151.721 313.096 140.106 334.207 130.086 356.068C120.157 377.732 111.808 400.213 106.833 423.498C101.957 446.328 100.27 470.044 103.459 493.222C105.023 504.618 107.795 515.885 111.87 526.668C115.806 537.087 121.444 546.613 130.74 553.239C149.326 566.482 173.55 569.89 195.94 570.193C207.694 570.352 219.486 569.769 231.186 568.739C243.07 567.694 254.916 566.043 266.562 563.461C278.139 560.894 289.561 557.426 300.437 552.716C310.411 548.393 320.617 543.085 327.402 534.422C333.941 526.07 336.653 515.424 337.793 505.118C339.117 493.161 338.917 481.001 338.054 469.021C336.26 443.996 330.915 419.386 325.223 394.981C319.4 370.008 313.423 345.066 307.407 320.138C305.944 314.073 303.001 301.942 301.53 295.877C300.93 293.514 304.642 292.5 305.22 294.877Z" fill="#001026"/>
</g>
<path d="M231.36 318C191.32 318 158.86 308.598 158.86 297C158.86 285.402 191.32 276 231.36 276C271.401 276 303.86 285.402 303.86 297C303.86 308.598 271.401 318 231.36 318Z" fill="white" stroke="#001026" stroke-width="2" stroke-miterlimit="10"/>
</g>
<ellipse cx="228.86" cy="293" rx="46" ry="15" fill="#EDEDED"/>
<g filter="url(#filter1_i_502_87745)">
<path d="M115.86 164C115.86 235.801 166.896 294 229.852 294C240.98 294 251.749 292.185 261.91 288.774C309.275 273.001 343.86 223.107 343.86 164.009C343.86 92.1907 292.816 34 229.852 34C224.955 34 220.117 34.3577 215.379 35.0469C159.263 43.1343 115.86 97.783 115.86 164Z" fill="white"/>
</g>
<path d="M115.86 164C115.86 235.801 166.896 294 229.852 294C240.98 294 251.749 292.185 261.91 288.774C309.275 273.001 343.86 223.107 343.86 164.009C343.86 92.1907 292.816 34 229.852 34C224.955 34 220.117 34.3577 215.379 35.0469C159.263 43.1343 115.86 97.783 115.86 164Z" stroke="#001026" stroke-width="2" stroke-miterlimit="10"/>
<g filter="url(#filter2_d_502_87745)">
<path d="M272.978 236.24C257.365 236.24 244.708 218.211 244.708 195.972C244.708 173.732 257.365 155.704 272.978 155.704C288.591 155.704 301.248 173.732 301.248 195.972C301.248 218.211 288.591 236.24 272.978 236.24Z" fill="#001026"/>
<path d="M247.429 195.972C247.484 209.077 252.286 224.857 264.439 231.327C269.242 233.882 274.719 234.2 279.914 232.095C282.255 231.152 284.825 229.364 286.796 227.478C289.094 225.285 290.978 222.751 292.557 219.999C299.918 207.125 300.484 189.973 294.767 176.375C292.361 170.662 288.517 165.08 283.42 161.746C278.727 158.676 273.347 157.634 268.087 159.147C262.632 160.715 257.993 164.85 254.747 169.774C250.816 175.728 248.518 182.78 247.767 189.875C247.538 191.892 247.44 193.932 247.429 195.972C247.419 199.503 241.974 199.503 241.985 195.972C242.017 187.396 243.781 178.81 247.636 171.144C250.827 164.806 255.727 158.906 262.109 155.671C268.12 152.622 275.209 152.063 281.503 154.618C288.157 157.316 293.352 162.558 296.978 168.699C305.613 183.328 306.136 202.727 299.515 218.211C296.662 224.89 292.154 231.053 286.023 235.023C280.338 238.696 273.304 239.957 266.77 238.126C251.6 233.882 244.01 216.972 242.344 202.497C242.093 200.326 241.985 198.143 241.974 195.961C241.974 192.441 247.419 192.441 247.429 195.972Z" fill="#001026"/>
<path d="M286.208 178.383C291.402 182.352 294.593 188.57 294.342 195.216C292.556 194.974 290.781 194.733 288.995 194.492C288.941 194.898 288.985 194.569 289.006 194.349C289.028 194.141 289.039 193.933 289.05 193.724C289.072 193.351 289.072 192.968 289.072 192.595C289.061 192.222 289.05 191.838 289.017 191.465C289.017 191.476 288.941 190.73 288.985 191.081C289.028 191.443 288.93 190.763 288.919 190.698C288.778 189.908 288.593 189.14 288.342 188.373C288.222 188.011 288.092 187.66 287.961 187.309C287.787 186.837 288.026 187.43 287.896 187.155C287.808 186.969 287.721 186.772 287.623 186.585C287.286 185.905 286.916 185.247 286.502 184.622C286.382 184.447 286.262 184.271 286.142 184.107C286.033 183.964 285.805 183.657 286.044 183.953C285.816 183.657 285.565 183.372 285.315 183.087C284.781 182.495 284.204 181.957 283.605 181.442C283.235 181.124 283.703 181.508 283.463 181.332C283.3 181.212 283.126 181.091 282.952 180.971C282.603 180.729 282.255 180.51 281.884 180.302C282.984 178.865 284.084 177.428 285.184 175.992C289.605 180.949 292.121 187.397 292.11 194.075C290.291 194.075 288.484 194.075 286.665 194.075C286.774 192.233 286.872 190.401 286.981 188.559C287.068 187.134 288.179 185.752 289.703 185.818C291.108 185.883 292.513 187.024 292.426 188.559C292.317 190.401 292.219 192.233 292.11 194.075C292.023 195.501 290.912 196.883 289.387 196.817C287.917 196.751 286.665 195.61 286.665 194.075C286.665 193.318 286.643 192.551 286.578 191.794C286.556 191.509 286.523 191.224 286.491 190.939C286.556 191.388 286.382 190.358 286.371 190.259C286.121 188.899 285.739 187.572 285.26 186.278C285.228 186.19 284.901 185.379 285.053 185.741C284.901 185.39 284.738 185.05 284.574 184.71C284.28 184.118 283.964 183.526 283.627 182.955C282.821 181.607 282.331 180.96 281.351 179.852C280.436 178.832 280.284 177.363 281.133 176.255C281.961 175.18 283.463 174.862 284.65 175.553C291.718 179.666 295.399 187.912 294.255 195.95C294.07 197.299 292.458 198.078 291.271 197.913C289.986 197.738 288.854 196.586 288.908 195.216C288.93 194.547 288.93 193.878 288.876 193.209C288.865 193.099 288.756 192.2 288.843 192.737C288.789 192.386 288.723 192.035 288.647 191.685C288.516 191.07 288.353 190.467 288.157 189.875C288.07 189.623 287.983 189.371 287.885 189.118C287.765 188.811 287.754 188.789 287.852 189.031C287.776 188.866 287.71 188.702 287.634 188.537C287.373 187.967 287.068 187.419 286.752 186.881C286.567 186.574 286.371 186.278 286.175 185.982C286.121 185.905 285.674 185.302 285.968 185.675C285.587 185.182 285.173 184.721 284.727 184.271C284.476 184.019 284.215 183.767 283.953 183.537C283.888 183.471 283.115 182.846 283.474 183.12C282.342 182.254 281.634 180.718 282.494 179.369C283.202 178.24 284.999 177.45 286.208 178.383Z" fill="white"/>
<path d="M187.002 236.24C171.389 236.24 158.732 218.211 158.732 195.972C158.732 173.732 171.389 155.704 187.002 155.704C202.615 155.704 215.271 173.732 215.271 195.972C215.271 218.211 202.615 236.24 187.002 236.24Z" fill="#001026"/>
<path d="M161.455 195.972C161.509 209.077 166.312 224.857 178.465 231.327C183.267 233.882 188.745 234.2 193.939 232.095C196.28 231.152 198.85 229.364 200.821 227.478C203.119 225.285 205.003 222.751 206.582 219.999C213.943 207.125 214.51 189.973 208.793 176.375C206.386 170.662 202.542 165.08 197.446 161.746C192.752 158.676 187.372 157.634 182.113 159.147C176.657 160.715 172.018 164.85 168.773 169.774C164.842 175.728 162.544 182.78 161.792 189.875C161.564 191.892 161.455 193.932 161.455 195.972C161.444 199.503 155.999 199.503 156.01 195.972C156.043 187.396 157.807 178.81 161.662 171.144C164.852 164.806 169.753 158.906 176.134 155.671C182.145 152.622 189.235 152.063 195.529 154.618C202.183 157.316 207.377 162.558 211.003 168.699C219.639 183.328 220.162 202.727 213.541 218.211C210.687 224.89 206.179 231.053 200.048 235.023C194.364 238.696 187.329 239.957 180.795 238.126C165.626 233.882 158.035 216.972 156.369 202.497C156.119 200.326 156.01 198.143 155.999 195.961C155.999 192.441 161.444 192.441 161.455 195.972Z" fill="#001026"/>
<path d="M200.233 178.383C205.427 182.352 208.618 188.57 208.368 195.216C206.582 194.974 204.807 194.733 203.021 194.492C202.966 194.898 203.01 194.569 203.032 194.349C203.054 194.141 203.064 193.933 203.075 193.724C203.097 193.351 203.097 192.968 203.097 192.595C203.086 192.222 203.075 191.838 203.043 191.465C203.043 191.476 202.966 190.73 203.01 191.081C203.054 191.443 202.956 190.763 202.945 190.698C202.803 189.908 202.618 189.14 202.367 188.373C202.248 188.011 202.117 187.66 201.986 187.309C201.812 186.837 202.052 187.43 201.921 187.155C201.834 186.969 201.747 186.772 201.649 186.585C201.311 185.905 200.941 185.247 200.527 184.622C200.407 184.447 200.288 184.271 200.168 184.107C200.059 183.964 199.83 183.657 200.07 183.953C199.841 183.657 199.591 183.372 199.34 183.087C198.807 182.495 198.229 181.957 197.63 181.442C197.26 181.124 197.728 181.508 197.489 181.332C197.326 181.212 197.151 181.091 196.977 180.971C196.629 180.729 196.28 180.51 195.91 180.302C197.01 178.865 198.11 177.428 199.209 175.992C203.631 180.949 206.146 187.397 206.135 194.075C204.317 194.075 202.509 194.075 200.69 194.075C200.799 192.233 200.897 190.401 201.006 188.559C201.093 187.134 202.204 185.752 203.729 185.818C205.133 185.883 206.538 187.024 206.451 188.559C206.342 190.401 206.244 192.233 206.135 194.075C206.048 195.501 204.937 196.883 203.413 196.817C201.943 196.751 200.69 195.61 200.69 194.075C200.69 193.318 200.669 192.551 200.603 191.794C200.582 191.509 200.549 191.224 200.516 190.939C200.582 191.388 200.407 190.358 200.396 190.259C200.146 188.899 199.765 187.572 199.286 186.278C199.253 186.19 198.926 185.379 199.079 185.741C198.926 185.39 198.763 185.05 198.6 184.71C198.306 184.118 197.99 183.526 197.652 182.955C196.846 181.607 196.356 180.96 195.376 179.852C194.461 178.832 194.309 177.363 195.158 176.255C195.986 175.18 197.489 174.862 198.676 175.553C205.743 179.666 209.424 187.912 208.281 195.95C208.095 197.299 206.484 198.078 205.297 197.913C204.012 197.738 202.879 196.586 202.934 195.216C202.956 194.547 202.956 193.878 202.901 193.209C202.89 193.099 202.781 192.2 202.868 192.737C202.814 192.386 202.749 192.035 202.672 191.685C202.542 191.07 202.378 190.467 202.182 189.875C202.095 189.623 202.008 189.371 201.91 189.118C201.79 188.811 201.779 188.789 201.877 189.031C201.801 188.866 201.736 188.702 201.66 188.537C201.398 187.967 201.093 187.419 200.778 186.881C200.592 186.574 200.396 186.278 200.2 185.982C200.146 185.905 199.699 185.302 199.993 185.675C199.612 185.182 199.199 184.721 198.752 184.271C198.502 184.019 198.24 183.767 197.979 183.537C197.914 183.471 197.14 182.846 197.5 183.12C196.367 182.254 195.659 180.718 196.52 179.369C197.227 178.24 199.013 177.45 200.233 178.383Z" fill="white"/>
</g>
<defs>
<filter id="filter0_i_502_87745" x="98" y="289.234" width="256.524" height="288.766" filterUnits="userSpaceOnUse" color-interpolation-filters="sRGB">
<feFlood flood-opacity="0" result="BackgroundImageFix"/>
<feBlend mode="normal" in="SourceGraphic" in2="BackgroundImageFix" result="shape"/>
<feColorMatrix in="SourceAlpha" type="matrix" values="0 0 0 0 0 0 0 0 0 0 0 0 0 0 0 0 0 0 127 0" result="hardAlpha"/>
<feOffset dx="41" dy="4"/>
<feGaussianBlur stdDeviation="6"/>
<feComposite in2="hardAlpha" operator="arithmetic" k2="-1" k3="1"/>
<feColorMatrix type="matrix" values="0 0 0 0 0 0 0 0 0 0 0 0 0 0 0 0 0 0 0.25 0"/>
<feBlend mode="normal" in2="shape" result="effect1_innerShadow_502_87745"/>
</filter>
<filter id="filter1_i_502_87745" x="114.86" y="33" width="289" height="266" filterUnits="userSpaceOnUse" color-interpolation-filters="sRGB">
<feFlood flood-opacity="0" result="BackgroundImageFix"/>
<feBlend mode="normal" in="SourceGraphic" in2="BackgroundImageFix" result="shape"/>
<feColorMatrix in="SourceAlpha" type="matrix" values="0 0 0 0 0 0 0 0 0 0 0 0 0 0 0 0 0 0 127 0" result="hardAlpha"/>
<feOffset dx="59" dy="4"/>
<feGaussianBlur stdDeviation="31"/>
<feComposite in2="hardAlpha" operator="arithmetic" k2="-1" k3="1"/>
<feColorMatrix type="matrix" values="0 0 0 0 0 0 0 0 0 0 0 0 0 0 0 0 0 0 0.25 0"/>
<feBlend mode="normal" in2="shape" result="effect1_innerShadow_502_87745"/>
</filter>
<filter id="filter2_d_502_87745" x="151.999" y="153" width="156.026" height="94" filterUnits="userSpaceOnUse" color-interpolation-filters="sRGB">
<feFlood flood-opacity="0" result="BackgroundImageFix"/>
<feColorMatrix in="SourceAlpha" type="matrix" values="0 0 0 0 0 0 0 0 0 0 0 0 0 0 0 0 0 0 127 0" result="hardAlpha"/>
<feOffset dy="4"/>
<feGaussianBlur stdDeviation="2"/>
<feComposite in2="hardAlpha" operator="out"/>
<feColorMatrix type="matrix" values="0 0 0 0 0 0 0 0 0 0 0 0 0 0 0 0 0 0 0.25 0"/>
<feBlend mode="normal" in2="BackgroundImageFix" result="effect1_dropShadow_502_87745"/>
<feBlend mode="normal" in="SourceGraphic" in2="effect1_dropShadow_502_87745" result="shape"/>
</filter>
</defs>
</svg>
