<svg xmlns="http://www.w3.org/2000/svg" width="68.702" height="73.862" viewBox="0 0 68.702 73.862" fill="none">
  <path d="M 0 37.243 C 0 26.127 3.116 17.141 9.347 10.285 C 15.579 3.428 23.956 0 34.481 0 C 41.439 0 47.515 1.576 52.708 4.727 C 57.935 7.878 61.899 12.206 64.599 17.712 C 67.334 23.218 68.702 29.486 68.702 36.515 C 68.702 47.77 65.586 56.808 59.354 63.629 C 53.123 70.451 44.728 73.862 34.169 73.862 C 27.211 73.862 21.118 72.269 15.89 69.083 C 10.697 65.863 6.751 61.5 4.05 55.994 C 1.35 50.488 0 44.238 0 37.243 Z M 48.294 36.931 C 48.294 31.044 47.082 26.283 44.659 22.647 C 42.27 18.976 38.877 17.141 34.481 17.141 C 30.084 17.141 26.639 18.994 24.147 22.699 C 21.689 26.369 20.46 31.113 20.46 36.931 C 20.46 42.749 21.672 47.51 24.095 51.215 C 26.553 54.886 29.946 56.721 34.273 56.721 C 38.67 56.721 42.097 54.868 44.555 51.163 C 47.047 47.458 48.294 42.714 48.294 36.931 Z" fill="currentColor" fill-rule="nonzero"></path>
</svg>