<svg xmlns="http://www.w3.org/2000/svg" width="21.857" height="23.493" viewBox="0 0 21.857 23.493" fill="none">
  <path d="M 0 11.846 C 0 8.31 0.991 5.452 2.974 3.271 C 4.956 1.09 7.622 0 10.97 0 C 13.184 0 15.117 0.501 16.769 1.503 C 18.432 2.506 19.693 3.882 20.552 5.634 C 21.422 7.385 21.857 9.378 21.857 11.614 C 21.857 15.194 20.866 18.068 18.883 20.238 C 16.901 22.408 14.23 23.493 10.871 23.493 C 8.657 23.493 6.719 22.986 5.055 21.973 C 3.403 20.949 2.148 19.561 1.289 17.81 C 0.43 16.058 0 14.07 0 11.846 Z M 15.365 11.746 C 15.365 9.874 14.979 8.36 14.208 7.203 C 13.448 6.036 12.369 5.452 10.97 5.452 C 9.571 5.452 8.475 6.041 7.682 7.22 C 6.9 8.387 6.509 9.896 6.509 11.746 C 6.509 13.597 6.895 15.111 7.666 16.29 C 8.448 17.457 9.527 18.041 10.904 18.041 C 12.303 18.041 13.393 17.452 14.175 16.273 C 14.968 15.095 15.365 13.586 15.365 11.746 Z" fill="currentColor" fill-rule="nonzero"></path>
</svg>