<svg width="564" height="245" viewBox="0 0 564 245" fill="none" xmlns="http://www.w3.org/2000/svg">
<path d="M368.769 152.051C378.048 152.051 385.186 153.905 390.183 157.614C395.179 161.284 397.262 166.394 396.429 172.944H374.003C374.241 171.129 373.923 169.729 373.051 168.742C372.179 167.716 370.93 167.203 369.304 167.203C367.639 167.203 366.35 167.538 365.438 168.209C364.526 168.88 364.07 169.728 364.07 170.754C364.07 171.938 364.526 172.885 365.438 173.596C366.35 174.266 367.956 174.858 370.256 175.371C378.266 177.028 383.699 178.429 386.554 179.573C391.709 181.625 395.04 184.605 396.547 188.512C397.301 190.485 397.678 192.813 397.678 195.496C397.678 202.559 394.921 208.044 389.409 211.95C383.937 215.817 376.66 217.751 367.579 217.751C358.578 217.751 351.458 215.837 346.224 212.01C340.99 208.143 338.73 202.875 339.444 196.206H363.058C362.939 198.06 363.296 199.6 364.129 200.823C364.962 202.007 366.389 202.598 368.411 202.598C369.958 202.598 371.168 202.283 372.04 201.651C372.952 200.98 373.408 200.053 373.408 198.869C373.408 197.567 372.952 196.6 372.04 195.969C371.128 195.298 369.403 194.608 366.866 193.897C359.093 191.924 354.671 190.78 353.6 190.465C348.247 188.768 344.579 186.518 342.596 183.717C340.732 181.033 339.8 177.482 339.8 173.062C339.8 170.916 340.121 168.907 340.764 167.036C342.034 166.714 343.268 166.337 344.464 165.904C349.274 164.22 353.484 161.591 357.06 158.028C358.809 156.313 360.428 154.473 361.918 152.511C364.074 152.204 366.358 152.051 368.769 152.051ZM357.077 153.515C356.37 154.31 355.639 155.08 354.88 155.823C351.631 159.062 347.813 161.45 343.424 162.984C343.156 163.082 342.885 163.175 342.612 163.266C343.905 161.29 345.645 159.505 347.83 157.91C350.506 155.957 353.589 154.492 357.077 153.515Z" fill="#16273F"></path>
<path d="M305.722 78.253C305.722 80.6867 305.567 83.1719 305.257 85.7085C305.23 85.9297 305.042 86.0953 304.819 86.0953H250.865C250.615 86.0953 250.414 86.3024 250.425 86.552C250.65 91.9463 251.927 95.9426 254.255 98.5407C256.706 101.212 259.812 102.547 263.574 102.547C270.5 102.547 274.388 99.3544 275.238 92.969C275.268 92.7454 275.457 92.5737 275.683 92.5737H304.4C304.654 92.5737 304.856 92.7874 304.84 93.0405C304.224 102.667 300.158 110.78 292.642 117.379C285.061 124.085 275.23 127.438 263.147 127.438C249.525 127.438 238.639 123.431 230.488 115.419C222.395 107.349 218.348 95.7845 218.348 80.725C218.348 70.8369 220.372 62.2843 224.418 55.0671C228.522 47.7931 233.908 42.366 240.576 38.7858C247.302 35.2056 254.882 33.4156 263.318 33.4156C276.084 33.4156 286.344 37.3935 294.095 45.3495C301.846 53.3054 305.722 64.2733 305.722 78.253ZM263.318 56.431C259.898 56.431 257.077 57.596 254.854 59.9259C252.708 62.1754 251.359 65.5638 250.806 70.0911C250.774 70.3525 250.98 70.5812 251.243 70.5812H274.828C275.078 70.5812 275.279 70.3731 275.267 70.1227C275.04 65.5254 273.878 62.1265 271.781 59.9259C269.616 57.596 266.794 56.431 263.318 56.431Z" fill="#16273F"></path>
<path d="M182.207 125.732C182.037 125.732 181.882 125.635 181.808 125.481L166.82 94.1806C166.685 93.8995 166.31 93.8417 166.097 94.0692L158.281 102.419C158.204 102.501 158.161 102.609 158.161 102.721V125.29C158.161 125.534 157.963 125.732 157.719 125.732H126.716C126.471 125.732 126.273 125.534 126.273 125.29V0.442887C126.273 0.198287 126.471 0 126.716 0H157.719C157.963 0 158.161 0.198288 158.161 0.442888V67.9514C158.161 68.1324 158.308 68.2791 158.489 68.2791C158.604 68.2791 158.71 68.219 158.77 68.121C159.852 66.3567 162.327 62.8008 166.198 57.4533L183.42 35.291C183.504 35.183 183.633 35.1198 183.77 35.1198H217.113C217.479 35.1198 217.687 35.5392 217.466 35.8308L190.561 71.2107C190.458 71.3465 190.442 71.5297 190.52 71.6815L218.016 125.087C218.168 125.382 217.954 125.732 217.622 125.732H182.207Z" fill="#16273F"></path>
<path d="M0 67.768C0 49.5262 5.12956 34.7792 15.3887 23.5272C25.6478 12.2753 39.4406 6.64926 56.7672 6.64926C68.2232 6.64926 78.2258 9.23495 86.7751 14.4063C95.3814 19.5777 101.907 26.6812 106.353 35.7169C110.856 44.7526 113.107 55.0385 113.107 66.5746C113.107 85.0438 107.977 99.876 97.7182 111.071C87.459 122.266 73.6377 127.864 56.2542 127.864C44.7982 127.864 34.767 125.25 26.1608 120.022C17.6115 114.737 11.1141 107.576 6.66843 98.5405C2.22281 89.5048 0 79.2473 0 67.768ZM79.5082 67.2566C79.5082 57.5958 77.5134 49.7819 73.5237 43.8149C69.5911 37.7911 64.0055 34.7792 56.7672 34.7792C49.5288 34.7792 43.8578 37.8195 39.7541 43.9002C35.7075 49.9239 33.6841 57.7094 33.6841 67.2566C33.6841 76.8037 35.679 84.6176 39.6686 90.6982C43.7153 96.722 49.3008 99.7339 56.4252 99.7339C63.6636 99.7339 69.3061 96.6936 73.3527 90.6129C77.4564 84.5323 79.5082 76.7469 79.5082 67.2566Z" fill="#16273F"></path>
<path d="M335.55 183.598C335.55 185.374 335.431 187.189 335.194 189.044H298.32C298.438 192.398 299.15 194.844 300.454 196.383C301.798 197.883 303.478 198.633 305.493 198.633C307.509 198.633 309.011 198.179 309.999 197.271C311.026 196.324 311.659 194.884 311.896 192.95H334.957C334.641 199.974 331.755 205.873 326.301 210.648C320.847 215.383 313.812 217.751 305.197 217.751C295.593 217.751 287.886 214.949 282.076 209.346C276.306 203.703 273.421 195.614 273.421 185.078C273.421 179.869 274.251 175.174 275.911 170.991C277.61 166.769 279.903 163.296 282.788 160.573C285.712 157.811 289.111 155.7 292.984 154.24C296.858 152.78 301.027 152.05 305.493 152.05C314.583 152.05 321.855 154.852 327.309 160.455C332.803 166.019 335.55 173.733 335.55 183.598ZM310.058 171.701C308.872 170.32 307.351 169.63 305.493 169.63C303.636 169.63 302.074 170.32 300.81 171.701C299.585 173.082 298.834 175.193 298.557 178.034H311.896C311.856 175.154 311.244 173.043 310.058 171.701Z" fill="#16273F"></path>
<path d="M309.142 152.211C316.55 152.876 322.607 155.623 327.31 160.455L327.817 160.984C329.053 162.308 330.139 163.749 331.079 165.305C330.195 165.347 329.294 165.37 328.377 165.37C321.543 165.37 315.231 164.41 309.443 162.488C309.263 162.429 309.142 162.259 309.142 162.069V152.211ZM339.409 35.1202C339.609 35.1202 339.784 35.2543 339.836 35.4473L349.921 72.7969C352.476 82.3213 354.165 89.2562 354.988 93.6006C355.025 93.7964 355.196 93.9375 355.395 93.9376C355.592 93.9376 355.763 93.7972 355.801 93.6036C357.317 85.8952 358.805 78.9591 360.266 72.7969L369.841 35.4532C369.891 35.2573 370.069 35.1202 370.271 35.1202H402.218C402.523 35.1204 402.737 35.4212 402.636 35.709L369.927 129.398C367.875 135.365 365.681 140.451 363.344 144.656C361.007 148.862 358.186 152.584 354.88 155.823C351.632 159.062 347.813 161.449 343.424 162.983C340.556 164.023 337.419 164.721 334.015 165.081C332.719 162.699 331.118 160.531 329.199 158.587C323.941 153.192 317.191 150.218 309.142 149.542V138.679C309.142 138.385 309.423 138.172 309.706 138.249C313.318 139.225 316.749 139.713 319.999 139.713C324.502 139.713 327.836 139.031 330.001 137.667C332.224 136.303 333.963 133.887 335.217 130.421L336.527 127.075C336.564 126.979 336.566 126.873 336.534 126.774L306.172 35.7032C306.077 35.4164 306.291 35.1202 306.593 35.1202H339.409Z" fill="#16273F"></path>
<path d="M184.935 135.156H224.212C231.451 135.156 237.975 136.176 243.784 138.215C249.593 140.255 254.352 143.059 258.06 146.629C261.814 150.198 264.674 154.375 266.64 159.16C268.65 163.945 269.656 169.122 269.656 174.692C269.656 180.457 268.65 185.83 266.64 190.812C264.629 195.754 261.724 200.107 257.926 203.872C254.173 207.598 249.347 210.54 243.449 212.697C237.595 214.815 231.049 215.874 223.81 215.874H184.935V135.156ZM221.598 194.047C227.809 194.047 232.412 192.322 235.406 188.87C238.444 185.379 239.963 180.614 239.963 174.574C239.963 169.201 238.467 164.925 235.473 161.748C232.479 158.571 227.854 156.983 221.598 156.983H214.024V194.047H221.598Z" fill="#16273F"></path>
<path d="M503.108 153.28H527.009V164.405H527.532C528.617 160.775 530.692 157.808 533.754 155.505C536.856 153.202 540.771 152.05 545.501 152.05C550.89 152.05 555.212 153.768 558.469 157.203C561.725 160.638 563.354 165.81 563.354 172.72V215.874H538.93V178.341C538.93 176.506 538.523 175.081 537.709 174.066C536.894 173.012 535.673 172.485 534.045 172.485C532.107 172.485 530.536 173.305 529.335 174.945C528.133 176.584 527.532 178.79 527.532 181.561V215.874H503.108V153.28Z" fill="#16273F"></path>
<path d="M401.443 153.928H425.918V215.874H401.443V153.928Z" fill="#16273F"></path>
<path d="M475.054 200.902C491.247 200.902 499.343 207.086 499.343 219.453C499.343 223.51 498.393 227.119 496.492 230.279C494.592 233.479 491.959 236.054 488.594 238.004C485.229 239.994 481.369 241.496 477.014 242.51C472.659 243.525 467.908 244.032 462.761 244.032C440.71 244.032 429.684 238.96 429.684 228.816C429.684 226.905 430.099 225.208 430.931 223.725C431.762 222.243 432.831 221.092 434.138 220.272C435.484 219.453 436.77 218.809 437.998 218.341C439.265 217.912 440.492 217.639 441.68 217.522V217.054C440.492 216.625 439.443 216.156 438.532 215.649C437.661 215.142 436.711 214.44 435.682 213.542C434.692 212.606 433.92 211.436 433.366 210.031C432.851 208.588 432.594 206.93 432.594 205.057C432.594 203.301 432.95 201.682 433.662 200.2C434.415 198.678 435.404 197.41 436.632 196.396C437.859 195.381 439.086 194.543 440.314 193.879C441.581 193.177 442.887 192.631 444.233 192.241C440.828 190.407 438.215 187.988 436.394 184.984C434.573 181.98 433.662 178.566 433.662 174.743C433.662 167.837 436.394 162.415 441.858 158.474C447.361 154.534 454.804 152.563 464.187 152.563C471.392 152.563 477.469 153.812 482.418 156.309C482.893 155.177 483.368 154.144 483.843 153.207C484.318 152.271 484.952 151.237 485.743 150.106C486.575 148.935 487.446 147.979 488.356 147.238C489.267 146.458 490.395 145.814 491.741 145.307C493.087 144.761 494.533 144.507 496.077 144.546H498.511V162.805C495.7 162.649 493.068 162.727 490.613 163.039C492.791 166.121 493.879 169.827 493.879 174.158C493.879 181.063 491.148 186.506 485.684 190.485C480.26 194.465 472.936 196.454 463.711 196.454C461.059 196.454 458.307 196.259 455.457 195.869C454.467 196.571 453.972 197.41 453.972 198.385C453.972 199.4 454.289 200.083 454.922 200.434C455.595 200.746 456.585 200.902 457.892 200.902H475.054ZM464.187 167.954C462.167 167.954 460.584 168.54 459.436 169.71C458.327 170.842 457.773 172.441 457.773 174.509C457.773 176.538 458.327 178.137 459.436 179.308C460.544 180.439 462.009 181.005 463.83 181.005C465.612 181.005 467.077 180.419 468.225 179.249C469.373 178.079 469.947 176.499 469.947 174.509C469.947 172.519 469.393 170.939 468.284 169.769C467.215 168.559 465.849 167.954 464.187 167.954ZM462.524 229.168C467.037 229.168 470.462 228.699 472.797 227.763C475.173 226.866 476.361 225.578 476.361 223.901C476.361 222.925 476.024 222.204 475.351 221.735C474.718 221.267 473.629 221.033 472.085 221.033H452.903C451.597 221.657 450.944 222.769 450.944 224.369C450.944 227.568 454.804 229.168 462.524 229.168Z" fill="#16273F"></path>
<path d="M452.839 25.9245L429.042 105.264L407.488 100.97L416.08 18.6016L452.839 25.9245Z" fill="#16273F"></path>
<path d="M432.489 127.301C432.489 116.347 424.674 108.267 413.46 108.267C402.417 108.267 394.602 116.347 394.602 127.301C394.602 138.254 402.587 146.154 413.46 146.154C424.334 146.154 432.489 138.254 432.489 127.301Z" fill="#FBAE05"></path>
</svg>