<svg width="70" height="70" viewBox="0 0 70 70" fill="none" xmlns="http://www.w3.org/2000/svg">
<circle cx="35" cy="35" r="35" fill="white"></circle>
<path d="M8.42603 35.4065C8.42603 31.871 9.41729 29.0128 11.3998 26.8321C13.3823 24.6513 16.0477 23.5609 19.396 23.5609C21.6098 23.5609 23.5427 24.062 25.1948 25.0643C26.8579 26.0666 28.1191 27.4433 28.9781 29.1946C29.8482 30.9458 30.2833 32.9393 30.2833 35.1752C30.2833 38.7547 29.292 41.6294 27.3095 43.7991C25.327 45.9689 22.6561 47.0538 19.2968 47.0538C17.083 47.0538 15.1446 46.5471 13.4815 45.5338C11.8294 44.5095 10.5738 43.1218 9.71466 41.3705C8.85557 39.6193 8.42603 37.6313 8.42603 35.4065ZM23.7906 35.3073C23.7906 33.435 23.4051 31.9205 22.6341 30.7641C21.8741 29.5966 20.7947 29.0128 19.396 29.0128C17.9972 29.0128 16.9013 29.6021 16.1083 30.7806C15.3263 31.9481 14.9353 33.457 14.9353 35.3073C14.9353 37.1577 15.3208 38.6721 16.0918 39.8506C16.8738 41.0181 17.9531 41.6018 19.3299 41.6018C20.7287 41.6018 21.819 41.0126 22.601 39.8341C23.394 38.6556 23.7906 37.1467 23.7906 35.3073Z" fill="#16273F"></path>
<path d="M43.3196 47.0538L40.3458 40.8254L38.7268 42.5601V47.0538H32.5645V22.6853H38.7268V35.9186H38.8259C39.0242 35.5882 39.5088 34.8888 40.2798 33.8205L43.6335 29.492H50.2915L44.9552 36.5299L50.3576 47.0538H43.3196Z" fill="#16273F"></path>
<path d="M61.7302 27.1999L57.8006 40.3014L54.2412 39.5924L55.66 25.9906L61.7302 27.1999Z" fill="#16273F"></path>
<path d="M58.3697 43.9405C58.3697 42.1318 57.0791 40.7975 55.2275 40.7975C53.4038 40.7975 52.1133 42.1318 52.1133 43.9405C52.1133 45.7492 53.4319 47.0539 55.2275 47.0539C57.023 47.0539 58.3697 45.7492 58.3697 43.9405Z" fill="#FBAE05"></path>
</svg>