<svg width="70" height="70" viewBox="0 0 70 70" fill="none" xmlns="http://www.w3.org/2000/svg">
<circle cx="35" cy="35" r="35" fill="#16273F"></circle>
<path d="M8.4259 35.4065C8.4259 31.871 9.41716 29.0129 11.3997 26.8321C13.3822 24.6514 16.0476 23.561 19.3958 23.561C21.6097 23.561 23.5426 24.0621 25.1947 25.0644C26.8578 26.0667 28.1189 27.4434 28.978 29.1946C29.8481 30.9459 30.2832 32.9394 30.2832 35.1752C30.2832 38.7548 29.2919 41.6294 27.3094 43.7992C25.3269 45.9689 22.656 47.0538 19.2967 47.0538C17.0829 47.0538 15.1444 46.5472 13.4813 45.5339C11.8292 44.5096 10.5736 43.1218 9.71454 41.3706C8.85545 39.6194 8.4259 37.6314 8.4259 35.4065ZM23.7904 35.3074C23.7904 33.435 23.4049 31.9206 22.634 30.7641C21.874 29.5966 20.7946 29.0129 19.3958 29.0129C17.9971 29.0129 16.9012 29.6021 16.1082 30.7806C15.3262 31.9481 14.9352 33.457 14.9352 35.3074C14.9352 37.1578 15.3207 38.6722 16.0916 39.8507C16.8736 41.0182 17.953 41.6019 19.3298 41.6019C20.7285 41.6019 21.8189 41.0127 22.6009 39.8342C23.3939 38.6557 23.7904 37.1467 23.7904 35.3074Z" fill="#FAFAFA"></path>
<path d="M43.3194 47.0538L40.3456 40.8254L38.7265 42.5601V47.0538H32.5642V22.6854H38.7265V35.9187H38.8257C39.0239 35.5883 39.5085 34.8889 40.2795 33.8205L43.6333 29.492H50.2912L44.955 36.53L50.3573 47.0538H43.3194Z" fill="#FAFAFA"></path>
<path d="M61.7303 27.1999L57.8007 40.3015L54.2414 39.5924L55.6601 25.9906L61.7303 27.1999Z" fill="#FAFAFA"></path>
<path d="M58.3698 43.9405C58.3698 42.1318 57.0793 40.7975 55.2276 40.7975C53.404 40.7975 52.1134 42.1318 52.1134 43.9405C52.1134 45.7492 53.432 47.0539 55.2276 47.0539C57.0231 47.0539 58.3698 45.7492 58.3698 43.9405Z" fill="#FBAE05"></path>
</svg>