<svg xmlns="http://www.w3.org/2000/svg" width="1921.000" height="2049" viewBox="0 0 1921.000 2049" fill="none">
  <path d="M 1 0 L 1921 0 L 1921 2049 L 0 2049 L 1 0 Z" fill="currentColor" fill-rule="nonzero"></path>
  <path d="M 1 0 L 1 -0.5 L 0.5 -0.5 L 0.5 0 L 1 0 Z M 1921 0 L 1921.5 0 L 1921.5 -0.5 L 1921 -0.5 L 1921 0 Z M 1921 2049 L 1921 2049.5 L 1921.5 2049.5 L 1921.5 2049 L 1921 2049 Z M 0 2049 L -0.5 2049 L -0.5 2049.5 L 0 2049.5 L 0 2049 Z M 1 0 L 1 0.5 L 1921 0.5 L 1921 0 L 1921 -0.5 L 1 -0.5 L 1 0 Z M 1921 0 L 1920.5 0 L 1920.5 2049 L 1921 2049 L 1921.5 2049 L 1921.5 0 L 1921 0 Z M 1921 2049 L 1921 2048.5 L 0 2048.5 L 0 2049 L 0 2049.5 L 1921 2049.5 L 1921 2049 Z M 0 2049 L 0.5 2049 L 1.5 0 L 1 0 L 0.5 0 L -0.5 2049 L 0 2049 Z" fill="currentColor" fill-rule="nonzero"></path>
</svg>